<?xml version="1.0" encoding="UTF-8" standalone="no"?>
<!-- Created with Inkscape (http://www.inkscape.org/) -->

<svg
   width="183.5mm"
   height="458.745mm"
   viewBox="0 0 183.5 458.74499"
   version="1.1"
   id="svg1"
   inkscape:version="1.4 (86a8ad7, 2024-10-11)"
   sodipodi:docname="map_line.svg"
   xmlns:inkscape="http://www.inkscape.org/namespaces/inkscape"
   xmlns:sodipodi="http://sodipodi.sourceforge.net/DTD/sodipodi-0.dtd"
   xmlns:xlink="http://www.w3.org/1999/xlink"
   xmlns="http://www.w3.org/2000/svg"
   xmlns:svg="http://www.w3.org/2000/svg">
  <sodipodi:namedview
     id="namedview1"
     pagecolor="#ffffff"
     bordercolor="#111111"
     borderopacity="1"
     inkscape:showpageshadow="0"
     inkscape:pageopacity="0"
     inkscape:pagecheckerboard="1"
     inkscape:deskcolor="#d1d1d1"
     inkscape:document-units="mm"
     showgrid="true"
     inkscape:zoom="1.4551341"
     inkscape:cx="448.06867"
     inkscape:cy="713.67993"
     inkscape:window-width="2560"
     inkscape:window-height="1373"
     inkscape:window-x="-9"
     inkscape:window-y="-9"
     inkscape:window-maximized="1"
     inkscape:current-layer="layer1"
     inkscape:lockguides="true">
    <inkscape:grid
       type="axonomgrid"
       id="grid3"
       units="mm"
       originx="386.51395"
       originy="382.93301"
       spacingx="0.99999998"
       spacingy="1"
       empcolor="#0099e5"
       empopacity="0.18823529"
       color="#0099e5"
       opacity="0.14901961"
       empspacing="5"
       dotted="false"
       gridanglex="30"
       gridanglez="30"
       enabled="true"
       visible="true" />
  </sodipodi:namedview>
  <defs
     id="defs1">
    <linearGradient
       id="linearGradient33"
       inkscape:collect="always">
      <stop
         style="stop-color:#8d00b6;stop-opacity:1;"
         offset="0.54892206"
         id="stop33" />
      <stop
         style="stop-color:#1b0023;stop-opacity:1;"
         offset="0.79104483"
         id="stop34" />
    </linearGradient>
    <inkscape:path-effect
       effect="fillet_chamfer"
       id="path-effect16"
       is_visible="true"
       lpeversion="1"
       nodesatellites_param="F,0,0,1,0,0,0,1 @ F,0,1,1,0,10.054166,0,1 @ F,0,1,1,0,10.054166,0,1 @ F,0,1,1,0,10.054166,0,1 @ F,0,0,1,0,0,0,1"
       radius="39"
       unit="px"
       method="auto"
       mode="F"
       chamfer_steps="1"
       flexible="false"
       use_knot_distance="true"
       apply_no_radius="true"
       apply_with_radius="true"
       only_selected="true"
       hide_knots="false" />
    <linearGradient
       inkscape:collect="always"
       xlink:href="#linearGradient33"
       id="linearGradient34"
       x1="150.03319"
       y1="142.52899"
       x2="150.03319"
       y2="194.99066"
       gradientUnits="userSpaceOnUse" />
  </defs>
  <g
     inkscape:groupmode="layer"
     id="layer11"
     inkscape:label="Detail"
     style="opacity:1;stroke-width:0.5;stroke-dasharray:none"
     transform="translate(-14.599208,89.269776)">
    <g
       inkscape:groupmode="layer"
       id="layer12"
       inkscape:label="Entry"
       style="display:inline;opacity:1">
      <path
         style="opacity:1;fill:#ffffff;fill-opacity:1;stroke:none;stroke-width:0.499999;stroke-linejoin:bevel;stroke-dasharray:none;stroke-opacity:1"
         d="m 162.95618,81.16324 v -10 l -21.65063,-12.5 -12.99039,7.5 v 10 l -21.65063,12.5 c 9.98849,6.04432 20.04557,11.94445 30.3109,17.5 l 8.66025,-5 -9.12632,-5 z"
         id="path34"
         inkscape:label="fill"
         sodipodi:nodetypes="cccccccccc" />
      <g
         inkscape:groupmode="layer"
         id="layer14"
         inkscape:label="Door"
         style="opacity:1;stroke-width:0.5;stroke-dasharray:none">
        <path
           style="opacity:1;fill:#342c43;fill-opacity:1;stroke:#000000;stroke-width:0.499999;stroke-linejoin:bevel;stroke-dasharray:none;stroke-opacity:1"
           d="m 154.3633,76.259824 v -5.000001 c -1.307,-1.818232 -2.75038,-2.651565 -4.33012,-2.5 l -0.1189,4.911603"
           id="path37"
           inkscape:label="frame"
           sodipodi:nodetypes="cccc" />
        <path
           style="fill:none;fill-opacity:1;stroke:#000000;stroke-width:0.333;stroke-linejoin:bevel;stroke-dasharray:none;stroke-opacity:1"
           d="m 150.03318,73.759824 4.33012,-2.500001"
           id="path38"
           inkscape:label="inner" />
      </g>
      <g
         inkscape:groupmode="layer"
         id="layer13"
         inkscape:label="Inner Corner"
         style="opacity:1;stroke-width:0.5;stroke-dasharray:none">
        <path
           style="display:inline;opacity:1;fill:none;fill-opacity:1;stroke:#000000;stroke-width:0.333;stroke-linejoin:bevel;stroke-dasharray:none;stroke-opacity:1"
           d="m 141.30555,68.66324 -0.64762,0.416563 -0.95824,0.643132 -0.65841,0.404505 -0.7847,0.500612 -0.94235,0.402643 -0.8265,0.545591 -0.93632,0.447533 -0.85329,0.630608 -0.86615,0.479008 -0.86392,0.4654 -1.18296,0.729412 -1.24323,0.790381 -1.15483,0.425772 -1.07187,0.61884"
           id="path36"
           sodipodi:nodetypes="ccccccccccccccc"
           inkscape:label="l" />
        <path
           style="display:inline;opacity:1;fill:none;fill-opacity:1;stroke:#000000;stroke-width:0.333;stroke-linejoin:bevel;stroke-dasharray:none;stroke-opacity:1"
           d="m 162.95618,81.16324 -0.88471,-0.3657 -0.85342,-0.532204 -1.20526,-0.737268 -1.85348,-0.963662 -1.52318,-0.990483 -1.25141,-0.597533 -1.34524,-0.965927 -1.6695,-0.894133 -1.07045,-0.668021 -0.69661,-0.279281 -1.17418,-0.751653 -1.63761,-0.864612 -1.65108,-0.881106 -1.01873,-0.723139 -1.00616,-0.543298 -0.61852,-0.445263 -0.71757,-0.372679 -0.68704,-0.348897 -0.78648,-0.575141 -3e-5,-10"
           id="path35"
           sodipodi:nodetypes="ccccccccccccccccccccc"
           inkscape:label="r" />
      </g>
      <g
         inkscape:groupmode="layer"
         id="layer16"
         inkscape:label="Stairs"
         style="opacity:1;stroke-width:0.5;stroke-dasharray:none">
        <path
           style="opacity:1;stroke-width:0.499999;stroke-dasharray:none;display:inline;fill:#342c43;fill-opacity:1;stroke:none;stroke-linejoin:bevel;stroke-opacity:1"
           d="m 138.70747,97.163237 -4.33013,2.5 0.86603,0.500003 v 1 l 0.86602,0.5 v 1 l 0.86603,0.5 v 1 l 0.86602,-0.5 1.73205,1 6.06218,-3.5"
           id="path59"
           sodipodi:nodetypes="ccccccccccc" />
        <g
           inkscape:groupmode="layer"
           id="layer18"
           inkscape:label="Steps"
           style="opacity:1;stroke-width:0.5;stroke-dasharray:none">
          <path
             style="opacity:1;fill:none;fill-opacity:1;stroke:#000000;stroke-width:0.5;stroke-linejoin:bevel;stroke-dasharray:none;stroke-opacity:1"
             d="m 138.70747,97.16324 -4.33013,2.5 0.86603,0.5 v 1 l 0.86602,0.5 v 1 l 0.86603,0.5 v 1 l 0.86602,-0.5 1.73205,1"
             id="path48"
             sodipodi:nodetypes="cccccccccc" />
          <path
             style="fill:none;fill-opacity:1;stroke:#000000;stroke-width:0.333;stroke-linejoin:bevel;stroke-dasharray:none;stroke-opacity:1"
             d="m 135.24337,100.16324 -4.33013,2.5"
             id="path49"
             sodipodi:nodetypes="cc" />
          <path
             style="fill:none;fill-opacity:1;stroke:#000000;stroke-width:0.333;stroke-linejoin:bevel;stroke-dasharray:none;stroke-opacity:1"
             d="m 135.24337,101.16324 -3.4641,2"
             id="path50"
             sodipodi:nodetypes="cc" />
          <path
             style="display:inline;fill:none;fill-opacity:1;stroke:#000000;stroke-width:0.333;stroke-linejoin:bevel;stroke-dasharray:none;stroke-opacity:1"
             d="m 136.10939,101.66324 -3.4641,2"
             id="path51"
             sodipodi:nodetypes="cc" />
          <path
             style="display:inline;fill:none;fill-opacity:1;stroke:#000000;stroke-width:0.333;stroke-linejoin:bevel;stroke-dasharray:none;stroke-opacity:1"
             d="m 136.17677,102.75982 -2.66545,1.40342"
             id="path52"
             sodipodi:nodetypes="cc" />
          <path
             style="display:inline;fill:none;fill-opacity:1;stroke:#000000;stroke-width:0.333;stroke-linejoin:bevel;stroke-dasharray:none;stroke-opacity:1"
             d="m 137.0108,103.25982 -2.63346,1.40342"
             id="path53"
             sodipodi:nodetypes="cc" />
          <path
             style="display:inline;fill:none;fill-opacity:1;stroke:#000000;stroke-width:0.333;stroke-linejoin:bevel;stroke-dasharray:none;stroke-opacity:1"
             d="m 135.24337,105.16324 2.66545,-1.40342"
             id="path54"
             sodipodi:nodetypes="cc" />
          <path
             style="fill:none;fill-opacity:1;stroke:#000000;stroke-width:0.5;stroke-linejoin:bevel;stroke-dasharray:none;stroke-opacity:1"
             d="m 138.70747,104.16324 0.86602,-0.5 0.86603,0.5"
             id="path56"
             sodipodi:nodetypes="ccc" />
        </g>
        <g
           inkscape:groupmode="layer"
           id="layer17"
           inkscape:label="Railing"
           style="display:inline;opacity:1;stroke-width:0.5;stroke-dasharray:none">
          <path
             style="opacity:1;fill:none;fill-opacity:1;stroke:#000000;stroke-width:0.333;stroke-linejoin:bevel;stroke-dasharray:none;stroke-opacity:1"
             d="m 138.70747,97.16324 0,-1 -4.33013,2.5 v 1 l 0.93341,0.59658"
             id="path43"
             sodipodi:nodetypes="ccccc" />
          <path
             style="opacity:1;fill:none;fill-opacity:1;stroke:#000000;stroke-width:0.333;stroke-linejoin:bevel;stroke-dasharray:none;stroke-opacity:1"
             d="m 135.24337,98.16324 0,1"
             id="path44"
             sodipodi:nodetypes="cc" />
          <path
             style="opacity:1;fill:none;fill-opacity:1;stroke:#000000;stroke-width:0.333;stroke-linejoin:bevel;stroke-dasharray:none;stroke-opacity:1"
             d="m 136.10939,97.66324 v 1"
             id="path45"
             sodipodi:nodetypes="cc" />
          <path
             style="opacity:1;fill:none;fill-opacity:1;stroke:#000000;stroke-width:0.333;stroke-linejoin:bevel;stroke-dasharray:none;stroke-opacity:1"
             d="m 136.97542,97.16324 0,1"
             id="path46"
             sodipodi:nodetypes="cc" />
          <path
             style="opacity:1;fill:none;fill-opacity:1;stroke:#000000;stroke-width:0.333;stroke-linejoin:bevel;stroke-dasharray:none;stroke-opacity:1"
             d="m 137.84144,96.66324 v 1"
             id="path47"
             sodipodi:nodetypes="cc" />
        </g>
        <path
           style="display:inline;fill:#342c43;fill-opacity:1;stroke:#000000;stroke-width:0.499999;stroke-linejoin:bevel;stroke-dasharray:none;stroke-opacity:1"
           d="m 142.17157,123.16324 v -4 l 2.59807,-1.5 v 4"
           id="path58"
           inkscape:label="Bottom Door" />
      </g>
    </g>
    <path
       style="display:inline;fill:none;fill-opacity:1;stroke:#000000;stroke-width:0.499999;stroke-linejoin:bevel;stroke-dasharray:none;stroke-opacity:1"
       d="m 162.95617,81.163242 v -10 l -21.65063,-12.5 -12.99039,7.5 v 10 l -21.65062,12.499998 30.31089,17.5 8.66025,-5 -9.12632,-4.999999 z"
       id="path34-5"
       inkscape:label="outline"
       sodipodi:nodetypes="cccccccccc" />
  </g>
  <g
     inkscape:groupmode="layer"
     id="layer10"
     inkscape:label="Boxing"
     style="display:inline;opacity:0.5"
     transform="translate(-14.666598,89.4863)">
    <g
       inkscape:label="Silo"
       inkscape:groupmode="layer"
       id="layer1"
       transform="translate(12.99038,37.499999)"
       style="display:inline">
      <path
         style="display:inline;fill:#9ee1ff;fill-opacity:1;stroke:#000000;stroke-width:1;stroke-linejoin:bevel;stroke-opacity:1"
         d="M 80.751148,-6.2401713 46.110134,13.759828 V 123.75982 l 34.641014,-20"
         id="path13" />
      <path
         style="display:inline;fill:#9ee1ff;fill-opacity:1;stroke:#000000;stroke-width:1;stroke-linejoin:bevel;stroke-opacity:1"
         d="m 115.39216,123.75982 10e-6,-60.313103 -21.650631,-12.5 21.650631,-12.5 -10e-6,-24.686891 L 80.751147,-6.2401734 V 103.75982 Z"
         id="path12"
         sodipodi:nodetypes="cccccccc" />
      <path
         style="display:inline;fill:#9ee1ff;fill-opacity:1;stroke:#000000;stroke-width:1;stroke-linejoin:bevel;stroke-opacity:1"
         d="m 115.39216,123.75982 -34.641013,-20 -34.641013,20 -17.320508,10 8.660254,5 17.320508,-10 25.980759,15 34.641013,-20"
         id="path11"
         sodipodi:nodetypes="cccccccc" />
      <path
         style="display:inline;fill:#ff9e9e;fill-opacity:1;stroke:#000000;stroke-width:1;stroke-linejoin:bevel;stroke-opacity:1"
         d="m 88.545375,156.25982 3.464102,4 -1.732049,3 c 1.73205,2 5.196152,2 6.928201,0 l -1.732049,-3 3.464099,-4 z"
         id="path19"
         sodipodi:nodetypes="ccccccc"
         transform="translate(-12.99038,-37.499998)" />
      <g
         inkscape:groupmode="layer"
         id="layer4"
         inkscape:label="Missile"
         transform="translate(-12.99038,-37.499998)">
        <path
           style="fill:#9effcd;fill-opacity:1;stroke:#000000;stroke-width:1;stroke-linejoin:bevel;stroke-opacity:1"
           d="m 87.301388,153.74545 v 4 l -1.732049,3 c 1.73205,2 5.196152,2 6.928201,0 l -1.732049,-3 v -4 z"
           id="path21"
           sodipodi:nodetypes="ccccccc" />
        <path
           style="fill:#9effcd;fill-opacity:1;stroke:#000000;stroke-width:1;stroke-linejoin:bevel;stroke-opacity:1"
           d="m 96.339604,153.75982 v 4 l -1.732049,3 c 1.73205,2 5.196152,2 6.928205,0 l -1.732053,-3 v -4 z"
           id="path18"
           sodipodi:nodetypes="ccccccc" />
        <path
           style="fill:#9effcd;fill-opacity:1;stroke:#000000;stroke-width:1;stroke-linejoin:bevel;stroke-opacity:1"
           d="m 88.545375,156.25982 3.464102,4 -1.732049,3 c 1.73205,2 5.196152,2 6.928201,0 l -1.732049,-3 3.464099,-4 z"
           id="path20"
           sodipodi:nodetypes="ccccccc" />
        <path
           style="fill:#9effcd;fill-opacity:1;stroke:#000000;stroke-width:1;stroke-linejoin:bevel;stroke-opacity:1"
           d="m 102.40178,66.259825 v 89.999995 c -4.330124,4.5 -12.990378,4.5 -17.320505,0 V 66.259825"
           id="path16"
           sodipodi:nodetypes="cccc" />
        <path
           style="fill:#9effcd;fill-opacity:1;stroke:#000000;stroke-width:1;stroke-linejoin:bevel;stroke-opacity:1"
           d="m 85.081275,66.259825 c 4.830133,2.806472 13.490387,2.806472 17.320505,0 0,-5 -4.330124,-12.5 -8.660251,-15 -4.294182,2.479248 -8.660254,10 -8.660254,15 z"
           id="path17"
           sodipodi:nodetypes="cccc" />
      </g>
    </g>
    <g
       inkscape:groupmode="layer"
       id="layer2"
       inkscape:label="Entrance"
       transform="translate(12.99038,37.499999)"
       style="display:none">
      <path
         style="display:inline;opacity:1;fill:#ff9e9e;fill-opacity:1;stroke:#000000;stroke-width:1;stroke-linejoin:bevel;stroke-opacity:1"
         d="M 115.39216,38.759827 V 28.759825 l 12.99038,-7.499998 v 9.999998"
         id="path14"
         sodipodi:nodetypes="cccc" />
      <path
         style="fill:#ff9e9e;fill-opacity:1;stroke:#000000;stroke-width:1;stroke-linejoin:bevel;stroke-opacity:1"
         d="M 150.03318,43.759826 V 33.759825 L 128.38254,21.259826 v 9.999999"
         id="path7" />
      <path
         style="display:inline;fill:#ff9e9e;fill-opacity:1;stroke:#000000;stroke-width:1;stroke-linejoin:bevel;stroke-opacity:1"
         d="M 150.03318,43.759826 128.38254,31.259825 c -11.30358,6.526118 -23.09401,13.333333 -34.641013,19.999999 l 21.650633,12.500001 z"
         id="path6"
         sodipodi:nodetypes="ccccc" />
    </g>
    <g
       inkscape:groupmode="layer"
       id="layer3"
       inkscape:label="Entrance Stairs"
       style="display:none;fill:#ff9eae;fill-opacity:1">
      <path
         style="fill:#ff9eae;fill-opacity:1;stroke:#000000;stroke-width:1;stroke-linejoin:bevel;stroke-opacity:1"
         d="m 137.04279,126.38571 8.66026,-5.12589 v -20 l -8.66025,5"
         id="path24" />
      <path
         style="fill:#ff9eae;fill-opacity:1;stroke:#000000;stroke-width:1;stroke-linejoin:bevel;stroke-opacity:1"
         d="m 128.38254,101.25982 v 20 l 8.66025,5.12589 1e-5,-20.12589"
         id="path23" />
      <path
         style="fill:#ff9eae;fill-opacity:1;stroke:#000000;stroke-width:1;stroke-linejoin:bevel;stroke-opacity:1"
         d="m 145.70305,101.25982 v -4.999997 l -8.66025,-5 v 5"
         id="path25" />
      <path
         style="fill:#ff9eae;fill-opacity:1;stroke:#000000;stroke-width:1;stroke-linejoin:bevel;stroke-opacity:1"
         d="m 128.38254,101.25982 8.66026,5 8.66025,-5 -8.66025,-4.999996 z"
         id="path22"
         sodipodi:nodetypes="cccc" />
    </g>
    <g
       inkscape:groupmode="layer"
       id="layer5"
       inkscape:label="Big Industrial"
       style="display:inline">
      <path
         style="fill:#ed9eff;fill-opacity:1;stroke:#000000;stroke-width:1;stroke-linejoin:bevel;stroke-opacity:1"
         d="m 137.04279,126.38571 17.32052,9.87411 -76.809434,44.34595 42.168414,25.65405 17.32051,-10 8.66025,5 51.96152,-30.43301 v -19.56699 l -51.96152,-30 z"
         id="path26"
         sodipodi:nodetypes="cccccccccc" />
      <path
         style="fill:#ed9eff;fill-opacity:1;stroke:#000000;stroke-width:1;stroke-linejoin:bevel;stroke-opacity:1"
         d="M 119.72229,206.25982 Z"
         id="path28" />
      <g
         inkscape:groupmode="layer"
         id="layer9"
         inkscape:label="Big Industrial Pit">
        <path
           style="fill:url(#linearGradient34);fill-opacity:1;stroke:#000000;stroke-width:1;stroke-linejoin:bevel;stroke-opacity:1"
           d="m 124.05242,168.75982 25.98076,-15 25.98076,15 -25.98076,15 z"
           id="path32" />
        <path
           style="fill:#772495;fill-opacity:1;stroke:#000000;stroke-width:1;stroke-linejoin:bevel;stroke-opacity:1"
           d="m 150.03318,153.75982 v 30"
           id="path33" />
      </g>
    </g>
    <g
       inkscape:groupmode="layer"
       id="layer6"
       inkscape:label="Industrial Stairs"
       transform="translate(8.4102601,-4.999999)"
       style="display:inline">
      <path
         style="fill:#ffe99e;fill-opacity:1;stroke:#000000;stroke-width:1;stroke-linejoin:bevel;stroke-opacity:1"
         d="m 128.63254,201.25982 -8.66026,5 8.66026,5 8.66025,-5 z"
         id="path27"
         inkscape:label="path27" />
      <path
         style="fill:#ffe99e;fill-opacity:1;stroke:#000000;stroke-width:1;stroke-linejoin:bevel;stroke-opacity:1"
         d="m 119.97228,206.25982 -0.24999,20 8.66025,5 0.25,-20 z"
         id="path30" />
      <path
         style="fill:#ffe99e;fill-opacity:1;stroke:#000000;stroke-width:1;stroke-linejoin:bevel;stroke-opacity:1"
         d="m 128.63254,211.25982 v 20 l 8.66025,-5 v -20 z"
         id="path31" />
    </g>
    <g
       inkscape:groupmode="layer"
       id="layer7"
       inkscape:label="Reactor Pit"
       style="display:inline">
      <path
         style="display:none;fill:#bfff9e;fill-opacity:1;stroke:#000000;stroke-width:1;stroke-linejoin:bevel;stroke-opacity:1"
         d="m 41.780007,171.25982 95.262793,55 30.3109,-17.8131 7.78485,5.3131 -1.82027,12.93301 c -1.63446,21.91925 -25.02498,32.20701 -27.11523,33.02273 -2.19352,0.85602 -24.14739,-0.005 -26.48075,1.23116 -1.38848,0.7354 -14.10021,-21.44387 -15.58847,-20.6869 -0.88381,0.44953 -0.84765,15.20824 -1.73204,15.6869 -1.00328,0.54301 -4.919598,-14.33723 -5.389884,-13.33579 -0.09949,0.21186 -1.73726,0.86317 -2.086817,0.78389 -1.017646,-0.23079 -1.294916,-2.33324 -2.931624,0.15829 -0.838894,1.27702 -2.342719,-1.08608 -3.162147,3.54162 -0.336617,1.90104 -4.616068,1.66509 -6.390808,0.10446 -1.692329,-1.48816 -4.77448,0.55315 -6.428339,0.18012 -0.589733,-0.13302 -1.347364,-0.74688 -2.193561,-0.60527 -1.325468,0.22181 -3.124378,0.83417 -3.891653,0.42515 -0.796329,-0.42451 -0.535983,-1.87547 -0.531748,-1.88302 0,0 0.407847,-0.98603 -0.768416,-1.17136 -0.615154,-0.0969 -1.390594,0.0952 -3.470193,0.61149 -1.424175,0.35357 -3.523839,-0.40959 -3.772601,0.18515 -0.551434,1.31837 -0.01676,2.25774 -2.760421,2.25774 -1.83077,0 -3.027581,-1.86697 -3.853191,-1.88491 -0.740089,-0.0161 -3.216336,-1.30913 -3.871482,-1.31926 -1.075227,-0.0166 -1.700734,1.23596 -2.462812,1.31926 -1.242405,0.13581 -2.218796,-1.35262 -3.191985,-1.49049 -1.113809,-0.15781 -2.222968,1.00523 -3.714103,0.71906 -4.080126,-0.78303 -1.668036,-2.08149 -8.410252,-4.62857 -1.312942,-0.496 -2.675541,-0.47495 -3.256659,-1.20998 -1.073468,-1.35778 0.201385,-3.74155 1.940633,-2.94448 2.182051,1 3.012134,-0.37634 3.914102,-1 1.002814,-0.69339 -2.365977,-2.37067 -2.598076,-2.5 -0.647787,-0.36096 -3.33294,-1.77069 -5.196153,-1 -1.912986,0.79128 -2.360931,2.5747 -3.464101,2.74018 -1.732051,0.25982 -3.432375,-1.07272 -3.803922,-1.74018 -0.438633,-0.78797 -0.918257,-2.59345 -0.950026,-4.74469 -0.02929,-1.98309 -0.500453,-2.36542 -1.30823,-4.75531 -1.02847,-3.04283 -0.165431,-6.67879 -1.038782,-7.40026 -1.559299,-1.28813 -1.529213,-3.23372 -1.544253,-3.66673 -0.01504,-0.43301 -1.444367,0.16163 -0.01504,-2.63569 1.429327,-2.79732 3.354974,-4.71595 4.330127,-6.45041 0.975153,-1.73447 -0.8071,-4.90315 0,-6.79245 l 1.73205,-4.05446 c 1.73205,-2 0,-3.81817 0.359504,-6.79244 0.01034,-0.0855 -0.619863,-2.05724 2.238572,-3.70756 0.844519,-0.48758 -0.329295,-2.19012 -0.329295,-2.19012 -0.536731,-1.30988 0.161396,-1.57968 1.19532,-2.30988 0,0 2.356077,-1.19526 2.598076,-1.5 0.483987,-0.60945 2.222719,-0.71671 3.204031,-0.15015 0.772667,0.4461 2.058237,1.20475 2.858147,0.65015 0.42865,-0.29719 7.794229,-4.5 7.794229,-4.5 z"
         id="path29"
         sodipodi:nodetypes="cccccsssssssssssscsssssssssssssssssssssssscsssssssc" />
      <path
         style="display:inline;opacity:1;fill:#bfff9e;fill-opacity:1;stroke:#000000;stroke-width:1;stroke-linejoin:bevel;stroke-dasharray:none;stroke-opacity:1"
         d="m 41.780013,170.94672 95.262797,55 30.31089,-17.49999 7.78485,5.31309 0.8754,14.68689 -8.66025,15 -8.66026,5.00002 -8.66025,9.99998 -17.32051,10.00001 -12.99039,13.0465 -16.82051,-5.22767 -9.160242,-10.31883 -4.330127,-12.5 -8.660255,-5 -8.660255,-10 -4.371429,-7.5 -8.618951,-5 h -8.788826 l -8.78169,-4.87172 -4.08012,-12.62827 -4.330127,-12.5 -4.330127,-7.50002 -4.330127,-12.49999 v -5 l 8.660255,-5 z"
         id="path55"
         sodipodi:nodetypes="cccccccccccccccccccccccccc" />
    </g>
  </g>
</svg>
